<svg xmlns="http://www.w3.org/2000/svg" xmlns:xlink="http://www.w3.org/1999/xlink" width="1080" zoomAndPan="magnify" viewBox="0 0 810 809.999993" height="1080" preserveAspectRatio="xMidYMid meet" version="1.2"><defs><clipPath id="35f628531a"><path d="M 47.050781 21.917969 L 766.804688 21.917969 L 766.804688 784.644531 L 47.050781 784.644531 Z M 47.050781 21.917969 "/></clipPath></defs><g id="e6a519055b"><g clip-rule="nonzero" clip-path="url(#35f628531a)"><path style=" stroke:none;fill-rule:evenodd;fill:#000000;fill-opacity:1;" d="M 428.515625 744.046875 C 432.46875 743.660156 425.292969 747.707031 429.78125 747.847656 C 430.167969 744.859375 434.167969 745.488281 433.570312 741.519531 C 431.21875 741.6875 429.351562 742.347656 428.515625 744.046875 M 446.226562 738.980469 C 450.003906 739 450.527344 742.277344 453.8125 742.78125 L 453.8125 736.453125 C 450.582031 736.585938 447.789062 737.171875 446.226562 738.980469 M 336.152344 258.171875 C 309.140625 236.878906 290.929688 208.777344 237.46875 218.945312 C 219.675781 222.332031 188.804688 234.804688 175.472656 241.722656 C 169.566406 244.785156 163.984375 251.40625 157.757812 255.640625 C 123.371094 279.027344 104.628906 308.761719 89.4375 348.007812 C 80.351562 371.476562 78.792969 397.757812 74.25 427.722656 C 71.664062 444.820312 69.730469 460.523438 69.195312 477.066406 C 68.667969 493.132812 71.636719 506.804688 74.25 522.621094 C 77.179688 540.265625 77.679688 557.660156 81.847656 571.964844 C 87.585938 591.664062 97.421875 607.921875 105.882812 623.839844 C 111.523438 634.457031 116.398438 645.449219 122.335938 654.207031 C 135.429688 673.550781 151.832031 688.535156 161.550781 707.351562 C 198.402344 737.417969 247.816406 772.140625 318.441406 765.5625 C 360.609375 761.625 391.835938 744.859375 420.921875 726.332031 C 428.59375 727.738281 439.824219 723.359375 450.023438 722.539062 C 461.949219 721.578125 474.210938 724.390625 485.445312 725.066406 C 531.882812 727.875 570.023438 715.445312 603.109375 697.230469 C 645.296875 663.496094 684.15625 626.441406 710.652344 577.023438 C 723.300781 534.5 731.957031 498.148438 739.75 453.027344 C 742.234375 438.664062 745.582031 421.402344 744.816406 407.472656 C 743.585938 385.003906 731.011719 357.625 723.308594 334.085938 C 713.40625 303.851562 708.011719 276.046875 696.734375 253.113281 C 692.542969 244.570312 683.238281 229.484375 677.757812 222.738281 C 634.941406 170.023438 533.785156 150.636719 466.46875 186.042969 C 449.273438 195.085938 424.140625 211.617188 413.328125 225.269531 C 408.449219 231.433594 406.558594 239.851562 400.675781 245.515625 C 387.578125 258.136719 366.09375 258.597656 351.335938 248.046875 C 346.605469 251.203125 342.457031 260.699219 336.152344 258.171875 M 252.648438 150.617188 C 299.40625 163.746094 306.246094 216.796875 342.480469 240.457031 C 329.433594 214.933594 330.300781 179.234375 315.910156 154.414062 C 305.757812 136.902344 292.75 124.679688 277.953125 111.394531 C 276.5625 131.519531 266.175781 142.636719 252.648438 150.617188 M 261.507812 94.949219 C 240.523438 87.65625 221.273438 128.507812 241.261719 144.289062 C 263.601562 145.996094 281.980469 102.058594 261.507812 94.949219 M 341.210938 144.289062 C 336.394531 181.664062 352.085938 216.476562 362.722656 245.515625 C 379.207031 250.386719 392.691406 245.390625 394.355469 229.066406 C 385.222656 213.734375 378.578125 195.921875 375.375 174.664062 C 372.484375 171.230469 364.351562 173.023438 365.253906 165.800781 C 368.664062 162.765625 373.871094 165.601562 375.375 168.332031 C 377.136719 150.175781 370.824219 123.273438 388.03125 126.578125 C 379.535156 143.882812 378.996094 180.261719 388.03125 197.433594 C 390.296875 191.816406 395.617188 183.492188 401.941406 186.042969 C 401.546875 195.769531 394.835938 199.1875 390.554688 205.027344 C 395.640625 209.644531 394.910156 220.070312 401.941406 222.738281 C 433.898438 202.835938 416.75 150.417969 417.128906 116.453125 C 417.488281 83.804688 433.914062 69.632812 444.960938 46.863281 C 450.085938 48.394531 457.410156 40.808594 452.550781 40.539062 C 398.335938 50.796875 348.625 86.84375 341.210938 144.289062 M 479.125 25.355469 C 483.871094 29.832031 478.671875 35.824219 479.125 40.539062 C 462.113281 55.097656 439.609375 72.390625 434.835938 98.742188 C 429.875 126.214844 446.050781 155.023438 438.636719 179.71875 C 454.011719 168.46875 478.777344 163.976562 503.164062 154.414062 C 519.144531 148.148438 536.515625 141.429688 562.625 143.027344 C 581.042969 144.15625 600.164062 148.679688 620.824219 154.414062 C 633.128906 157.832031 641.597656 164.382812 652.453125 170.863281 C 661.207031 176.09375 670.292969 179.875 677.757812 186.042969 C 713.316406 215.460938 742.839844 273.679688 754.941406 317.636719 C 761.078125 339.933594 761.65625 364.242188 763.792969 389.761719 C 767.183594 430.105469 770.722656 471.125 756.207031 517.554688 C 753.402344 526.511719 749.132812 535.183594 746.089844 544.128906 C 729.863281 591.675781 709.476562 620.335938 676.488281 654.207031 C 627.882812 704.136719 569.976562 752.292969 472.796875 737.71875 C 471.730469 743.691406 470.664062 754.410156 463.933594 757.964844 C 460.980469 759.527344 449.882812 757.261719 446.226562 757.964844 C 431.390625 760.8125 415.359375 772.472656 413.328125 751.640625 C 378.691406 771.445312 334.589844 786.035156 293.140625 784.535156 C 238.800781 782.570312 192.730469 760.539062 152.699219 725.066406 C 117.449219 693.828125 85.699219 659.015625 69.195312 607.394531 C 57.867188 571.976562 49.933594 531.785156 47.6875 492.25 C 46.398438 469.601562 46.984375 444.898438 50.21875 423.925781 C 63.65625 336.601562 102.523438 260.496094 175.472656 225.269531 C 209.679688 208.757812 241.421875 199.0625 285.542969 201.230469 C 281.011719 190.9375 276.5625 182.367188 266.5625 174.664062 C 255.84375 166.398438 238.785156 164.449219 228.613281 155.675781 C 218.667969 147.117188 208.574219 127.664062 210.894531 110.128906 C 213.28125 92.117188 233.320312 77.089844 256.445312 78.5 C 286.789062 80.34375 309.097656 117 324.769531 136.703125 C 341.625 79.589844 384.511719 33.792969 453.8125 22.820312 C 462.417969 21.464844 471.773438 21.164062 479.125 25.355469 "/></g><path style=" stroke:none;fill-rule:evenodd;fill:#b6f9af;fill-opacity:1;" d="M 360.191406 191.105469 C 364.265625 195.476562 366.726562 201.4375 374.109375 202.496094 C 374.441406 200.726562 376.882812 201.054688 377.902344 199.96875 C 374.625 195.460938 366.832031 184.054688 360.191406 191.105469 M 382.964844 170.863281 C 389.628906 173.746094 399.027344 169.511719 398.152344 160.742188 C 389.378906 160.414062 383.507812 162.976562 382.964844 170.863281 M 452.550781 40.539062 C 457.410156 40.808594 450.085938 48.394531 444.960938 46.863281 C 433.914062 69.636719 417.488281 83.804688 417.128906 116.453125 C 416.75 150.417969 433.898438 202.835938 401.941406 222.738281 C 394.910156 220.070312 395.640625 209.640625 390.554688 205.027344 C 394.835938 199.1875 401.542969 195.769531 401.941406 186.042969 C 395.613281 183.492188 390.296875 191.816406 388.03125 197.433594 C 378.996094 180.261719 379.535156 143.882812 388.03125 126.585938 C 370.824219 123.273438 377.136719 150.175781 375.378906 168.332031 C 373.871094 165.601562 368.664062 162.765625 365.253906 165.800781 C 364.355469 173.023438 372.484375 171.230469 375.378906 174.664062 C 378.578125 195.925781 385.222656 213.734375 394.351562 229.066406 C 392.691406 245.390625 379.207031 250.386719 362.722656 245.515625 C 352.085938 216.476562 336.394531 181.660156 341.210938 144.289062 C 348.625 86.84375 398.339844 50.796875 452.550781 40.539062 "/><path style=" stroke:none;fill-rule:evenodd;fill:#c6ba87;fill-opacity:1;" d="M 241.261719 144.289062 C 221.273438 128.503906 240.523438 87.65625 261.511719 94.949219 C 281.980469 102.058594 263.601562 145.996094 241.261719 144.289062 "/><path style=" stroke:none;fill-rule:evenodd;fill:#c6ba87;fill-opacity:1;" d="M 285.539062 159.476562 C 288.476562 172.144531 297.46875 178.761719 304.523438 187.3125 C 308.699219 177.050781 293.699219 158.078125 285.539062 159.476562 M 277.953125 111.398438 C 292.75 124.679688 305.757812 136.902344 315.910156 154.414062 C 330.296875 179.234375 329.433594 214.925781 342.480469 240.457031 C 306.246094 216.796875 299.40625 163.746094 252.648438 150.621094 C 266.175781 142.636719 276.5625 131.519531 277.953125 111.398438 "/><path style=" stroke:none;fill-rule:evenodd;fill:#000000;fill-opacity:1;" d="M 304.523438 187.3125 C 297.46875 178.761719 288.476562 172.144531 285.539062 159.476562 C 293.699219 158.078125 308.699219 177.050781 304.523438 187.3125 "/><path style=" stroke:none;fill-rule:evenodd;fill:#000000;fill-opacity:1;" d="M 398.152344 160.742188 C 399.027344 169.511719 389.628906 173.746094 382.964844 170.863281 C 383.511719 162.976562 389.378906 160.414062 398.152344 160.742188 "/><path style=" stroke:none;fill-rule:evenodd;fill:#7bdb91;fill-opacity:1;" d="M 619.5625 592.210938 C 622.703125 602.394531 635.367188 592.113281 637.273438 585.890625 C 634.832031 585.371094 636.273438 580.972656 632.214844 582.085938 C 628.375 585.851562 625.402344 590.464844 619.5625 592.210938 M 609.441406 580.820312 C 611.691406 583.1875 612.65625 579.792969 617.03125 580.820312 C 614.960938 571.582031 621.804688 571.253906 622.085938 564.375 C 613.363281 556.613281 607.359375 573.632812 609.441406 580.820312 M 128.65625 350.535156 C 131.199219 359.03125 145.550781 361.832031 157.757812 359.390625 C 168.234375 357.300781 187.109375 339.425781 184.328125 323.964844 C 182.355469 313.015625 171.808594 308.625 160.285156 311.316406 C 147.792969 314.234375 123.269531 332.496094 128.65625 350.535156 M 619.5625 297.394531 C 619.496094 299.011719 617.941406 299.148438 618.296875 301.195312 C 618.886719 308.617188 630.644531 304.871094 632.214844 311.316406 C 608.597656 352.121094 565.984375 381.371094 514.554688 401.148438 C 449.875 426.023438 386.683594 452.195312 310.851562 446.699219 C 255.167969 442.664062 195.859375 445.980469 156.492188 417.601562 C 160.515625 414.449219 167.042969 413.8125 165.351562 404.945312 C 159.421875 400.460938 152.707031 410.378906 147.632812 416.332031 C 139.210938 426.230469 124.367188 439.199219 137.511719 450.496094 C 143.617188 443.523438 142.21875 429.050781 151.433594 425.191406 C 189.953125 448.496094 245.203125 449.644531 288.074219 454.289062 C 322.378906 458.011719 352.046875 456.390625 382.964844 450.496094 C 484.753906 431.101562 591.984375 386.097656 641.074219 316.375 C 648.722656 319.6875 650.28125 329.089844 661.316406 329.023438 C 658.308594 311.59375 635.449219 299.09375 619.5625 297.394531 M 425.984375 402.414062 C 463.8125 416.234375 500.152344 400.136719 512.019531 372.046875 C 521.324219 350.023438 516.058594 311.34375 503.164062 296.128906 C 471.75 259.078125 406.902344 288.554688 398.152344 332.824219 C 383.71875 306.644531 334.394531 321.109375 320.972656 336.621094 C 308.273438 351.28125 302.210938 386.785156 310.851562 408.738281 C 317.285156 425.097656 339.761719 434.945312 356.398438 435.3125 C 381.695312 435.867188 404.167969 407.925781 410.800781 387.230469 C 417.207031 390.949219 419.882812 398.390625 425.984375 402.414062 M 351.335938 248.046875 C 366.097656 258.597656 387.578125 258.136719 400.675781 245.515625 C 406.558594 239.851562 408.449219 231.433594 413.328125 225.269531 C 424.140625 211.617188 449.273438 195.09375 466.46875 186.042969 C 533.789062 150.636719 634.941406 170.023438 677.757812 222.738281 C 683.238281 229.484375 692.542969 244.570312 696.734375 253.113281 C 708.011719 276.046875 713.40625 303.847656 723.308594 334.085938 C 731.011719 357.625 743.585938 385 744.816406 407.472656 C 745.582031 421.402344 742.234375 438.664062 739.75 453.027344 C 731.957031 498.148438 723.300781 534.5 710.65625 577.023438 C 684.15625 626.441406 645.296875 663.496094 603.109375 697.230469 C 570.023438 715.445312 531.882812 727.875 485.445312 725.066406 C 474.210938 724.390625 461.949219 721.578125 450.023438 722.539062 C 439.824219 723.359375 428.59375 727.738281 420.921875 726.332031 C 391.835938 744.859375 360.613281 761.625 318.4375 765.5625 C 247.816406 772.140625 198.402344 737.417969 161.554688 707.351562 C 151.832031 688.535156 135.429688 673.550781 122.335938 654.207031 C 116.398438 645.449219 111.523438 634.457031 105.882812 623.839844 C 97.421875 607.921875 87.582031 591.664062 81.847656 571.964844 C 77.679688 557.660156 77.179688 540.265625 74.25 522.621094 C 71.632812 506.804688 68.671875 493.132812 69.195312 477.066406 C 69.730469 460.523438 71.667969 444.820312 74.25 427.722656 C 78.789062 397.757812 80.351562 371.476562 89.4375 348.007812 C 104.632812 308.761719 123.367188 279.027344 157.757812 255.640625 C 163.984375 251.40625 169.566406 244.785156 175.472656 241.722656 C 188.808594 234.804688 219.675781 222.324219 237.46875 218.945312 C 290.925781 208.777344 309.140625 236.878906 336.152344 258.171875 C 342.457031 260.699219 346.605469 251.199219 351.335938 248.046875 "/><path style=" stroke:none;fill-rule:evenodd;fill:#000000;fill-opacity:1;" d="M 377.902344 199.96875 C 376.878906 201.054688 374.441406 200.726562 374.113281 202.496094 C 366.730469 201.4375 364.265625 195.476562 360.191406 191.105469 C 366.832031 184.054688 374.625 195.460938 377.902344 199.96875 "/><path style=" stroke:none;fill-rule:evenodd;fill:#000000;fill-opacity:1;" d="M 324.769531 342.949219 C 313.179688 357.0625 308.265625 386.28125 317.171875 406.210938 C 322.546875 418.230469 341.707031 427.675781 355.132812 427.722656 C 369.152344 427.765625 387.214844 415.4375 395.621094 403.679688 C 404.957031 390.613281 403.90625 374.71875 405.738281 363.191406 C 400.480469 346.945312 389.046875 330.117188 375.375 326.496094 C 357.875 325.796875 335.890625 329.398438 324.769531 342.949219 M 471.535156 399.886719 C 523.601562 389.140625 526.136719 280.917969 458.882812 286.003906 C 431.699219 288.066406 402.570312 317.960938 407.007812 348.007812 C 408.304688 356.828125 415.789062 361.734375 412.0625 372.046875 C 420.8125 393.90625 444.742188 405.410156 471.535156 399.886719 M 410.800781 387.230469 C 404.164062 407.925781 381.695312 435.867188 356.398438 435.3125 C 339.761719 434.945312 317.285156 425.097656 310.851562 408.742188 C 302.210938 386.785156 308.273438 351.28125 320.972656 336.621094 C 334.394531 321.113281 383.714844 306.644531 398.152344 332.824219 C 406.902344 288.554688 471.75 259.078125 503.164062 296.128906 C 516.054688 311.339844 521.320312 350.023438 512.019531 372.046875 C 500.152344 400.136719 463.8125 416.234375 425.984375 402.414062 C 419.882812 398.390625 417.207031 390.949219 410.800781 387.230469 "/><path style=" stroke:none;fill-rule:evenodd;fill:#ffffff;fill-opacity:1;" d="M 461.414062 340.414062 C 454.640625 341.121094 451.277344 353.945312 461.414062 356.863281 C 471.65625 354.257812 469.9375 339.53125 461.414062 340.414062 M 412.0625 372.046875 C 415.789062 361.734375 408.304688 356.828125 407.007812 348.007812 C 402.566406 317.960938 431.699219 288.066406 458.878906 286.003906 C 526.136719 280.917969 523.601562 389.140625 471.535156 399.886719 C 444.742188 405.410156 420.8125 393.90625 412.0625 372.046875 "/><path style=" stroke:none;fill-rule:evenodd;fill:#000000;fill-opacity:1;" d="M 661.316406 329.027344 C 650.28125 329.089844 648.722656 319.6875 641.074219 316.375 C 591.984375 386.097656 484.753906 431.101562 382.964844 450.492188 C 352.046875 456.390625 322.378906 458.011719 288.074219 454.289062 C 245.203125 449.644531 189.949219 448.496094 151.433594 425.191406 C 142.214844 429.050781 143.617188 443.523438 137.511719 450.492188 C 124.367188 439.199219 139.210938 426.230469 147.632812 416.335938 C 152.710938 410.378906 159.417969 400.464844 165.351562 404.949219 C 167.039062 413.8125 160.515625 414.449219 156.492188 417.601562 C 195.859375 445.980469 255.167969 442.664062 310.851562 446.699219 C 386.679688 452.195312 449.875 426.023438 514.554688 401.148438 C 565.984375 381.371094 608.597656 352.125 632.214844 311.316406 C 630.644531 304.871094 618.886719 308.617188 618.296875 301.195312 C 617.941406 299.148438 619.496094 299.011719 619.5625 297.394531 C 635.449219 299.09375 658.308594 311.59375 661.316406 329.027344 "/><path style=" stroke:none;fill-rule:evenodd;fill:#c7f2cf;fill-opacity:1;" d="M 137.511719 349.269531 C 154.890625 357.023438 175.125 345.882812 175.472656 325.230469 C 163.328125 312.746094 134.300781 326.597656 137.511719 349.269531 M 160.285156 311.316406 C 171.808594 308.625 182.355469 313.015625 184.328125 323.964844 C 187.109375 339.425781 168.234375 357.300781 157.757812 359.390625 C 145.550781 361.832031 131.199219 359.03125 128.65625 350.535156 C 123.269531 332.496094 147.792969 314.234375 160.285156 311.316406 "/><path style=" stroke:none;fill-rule:evenodd;fill:#c7f2cf;fill-opacity:1;" d="M 175.472656 325.230469 C 175.125 345.882812 154.890625 357.023438 137.511719 349.269531 C 134.300781 326.597656 163.328125 312.746094 175.472656 325.230469 "/><path style=" stroke:none;fill-rule:evenodd;fill:#ffffff;fill-opacity:1;" d="M 362.722656 375.839844 C 369.394531 376.609375 372.96875 374.28125 374.109375 369.515625 C 371.019531 356.648438 353.023438 364.003906 362.722656 375.839844 M 375.378906 326.496094 C 389.050781 330.117188 400.480469 346.941406 405.738281 363.191406 C 403.90625 374.71875 404.957031 390.613281 395.617188 403.679688 C 387.214844 415.441406 369.152344 427.765625 355.132812 427.722656 C 341.707031 427.675781 322.546875 418.230469 317.171875 406.210938 C 308.265625 386.285156 313.179688 357.058594 324.769531 342.945312 C 335.886719 329.398438 357.875 325.796875 375.378906 326.496094 "/><path style=" stroke:none;fill-rule:evenodd;fill:#000000;fill-opacity:1;" d="M 461.414062 356.863281 C 451.277344 353.945312 454.640625 341.121094 461.414062 340.414062 C 469.9375 339.53125 471.65625 354.257812 461.414062 356.863281 "/><path style=" stroke:none;fill-rule:evenodd;fill:#000000;fill-opacity:1;" d="M 374.109375 369.515625 C 372.96875 374.28125 369.394531 376.609375 362.722656 375.839844 C 353.023438 364.003906 371.019531 356.648438 374.109375 369.515625 "/><path style=" stroke:none;fill-rule:evenodd;fill:#000000;fill-opacity:1;" d="M 622.085938 564.375 C 621.804688 571.253906 614.960938 571.582031 617.03125 580.820312 C 612.65625 579.792969 611.691406 583.1875 609.441406 580.820312 C 607.359375 573.632812 613.363281 556.613281 622.085938 564.375 "/><path style=" stroke:none;fill-rule:evenodd;fill:#000000;fill-opacity:1;" d="M 632.214844 582.085938 C 636.273438 580.972656 634.832031 585.371094 637.273438 585.890625 C 635.367188 592.113281 622.703125 602.394531 619.5625 592.210938 C 625.402344 590.464844 628.375 585.851562 632.214844 582.085938 "/><path style=" stroke:none;fill-rule:evenodd;fill:#ffffff;fill-opacity:1;" d="M 453.8125 736.453125 L 453.8125 742.78125 C 450.527344 742.277344 450.003906 739 446.226562 738.980469 C 447.789062 737.171875 450.582031 736.585938 453.8125 736.453125 "/><path style=" stroke:none;fill-rule:evenodd;fill:#ffffff;fill-opacity:1;" d="M 433.570312 741.519531 C 434.167969 745.488281 430.167969 744.859375 429.78125 747.847656 C 425.292969 747.707031 432.46875 743.660156 428.515625 744.046875 C 429.351562 742.347656 431.21875 741.6875 433.570312 741.519531 "/></g></svg>