<svg xmlns="http://www.w3.org/2000/svg"
     viewBox="0 0 810 809.999993"
     fill="currentColor">
  <g id="daf53231dc">
    <path d="M 646.710938 300.945312 C 649.5625 298.09375 653.441406 296.484375 657.488281 296.484375 C 661.519531 296.484375 665.398438 298.09375 668.253906 300.945312 C 671.121094 303.800781 672.730469 307.679688 672.730469 311.726562 C 672.730469 315.769531 671.121094 319.648438 668.253906 322.503906 L 330.761719 660.011719 C 327.894531 662.863281 324.015625 664.472656 319.984375 664.472656 C 315.9375 664.472656 312.058594 662.863281 309.203125 660.011719 C 306.347656 657.15625 304.742188 653.277344 304.742188 649.230469 C 304.742188 645.1875 306.347656 641.304688 309.203125 638.453125 Z M 646.710938 300.945312" />
    <path d="M 572.890625 60.730469 L 744.609375 232.445312 C 748.394531 236.230469 748.394531 242.378906 744.609375 246.164062 L 658.761719 331.996094 L 480.199219 153.433594 C 476.414062 149.648438 476.414062 143.5 480.199219 139.714844 L 559.175781 60.730469 C 562.960938 56.945312 569.105469 56.945312 572.890625 60.730469 Z M 572.890625 103.832031 L 701.507812 232.445312 C 705.292969 236.230469 705.292969 242.378906 701.507812 246.164062 L 658.761719 288.890625 L 523.304688 153.433594 C 519.519531 149.648438 519.519531 143.5 523.300781 139.714844 L 559.175781 103.832031 C 562.960938 100.046875 569.105469 100.046875 572.890625 103.832031 Z M 572.890625 103.832031" />
    <path d="M 452.1875 211.386719 L 118.101562 544.917969 L 94.089844 703.113281 C 93.289062 708.40625 96.933594 712.046875 102.226562 711.246094 L 265.378906 686.472656 C 269.371094 685.863281 273.445312 686.875 276.699219 689.273438 C 279.957031 691.667969 282.132812 695.257812 282.726562 699.261719 C 283.335938 703.25 282.339844 707.324219 279.941406 710.582031 C 277.546875 713.835938 273.941406 716.011719 269.953125 716.609375 L 65.871094 747.601562 C 60.578125 748.402344 56.933594 744.761719 57.738281 739.46875 L 89.476562 530.425781 L 430.65625 189.828125 C 433.511719 186.960938 437.390625 185.367188 441.433594 185.367188 C 445.480469 185.367188 449.359375 186.976562 452.214844 189.84375 C 455.066406 192.699219 456.660156 196.578125 456.660156 200.621094 C 456.660156 204.667969 455.054688 208.535156 452.1875 211.386719 Z M 452.1875 211.386719" />
  </g>
</svg>
