<svg xmlns="http://www.w3.org/2000/svg"
     viewBox="0 0 810 809.999993"
     fill="currentColor">

<defs><clipPath id="052123e1c5"><path d="M 249 76.714844 L 559 76.714844 L 559 455 L 249 455 Z M 249 76.714844 "/></clipPath><clipPath id="c389158a1f"><path d="M 99.992188 496 L 414 496 L 414 732.964844 L 99.992188 732.964844 Z M 99.992188 496 "/></clipPath><clipPath id="000cfac8b6"><path d="M 383 496 L 709.742188 496 L 709.742188 732.964844 L 383 732.964844 Z M 383 496 "/></clipPath></defs><g id="a5f6fee6fd"><g clip-rule="nonzero" clip-path="url(#052123e1c5)"><path style="" d="M 375.511719 427.25 C 379.015625 428.832031 381.742188 431.742188 383.085938 435.335938 C 384.441406 438.933594 384.308594 442.921875 382.730469 446.425781 C 381.136719 449.914062 378.226562 452.640625 374.628906 453.996094 C 371.035156 455.355469 367.042969 455.222656 363.539062 453.628906 L 344.996094 445.226562 C 344.984375 445.214844 344.972656 445.214844 344.957031 445.199219 C 341.546875 443.648438 338.214844 441.910156 334.988281 440.011719 C 331.589844 438.023438 328.285156 435.902344 325.074219 433.652344 C 318.355469 428.9375 311.957031 423.800781 305.910156 418.269531 C 299.851562 412.765625 294.148438 406.867188 288.855469 400.609375 C 286.316406 397.609375 283.90625 394.515625 281.613281 391.328125 C 279.414062 388.273438 277.386719 385.097656 275.503906 381.832031 C 273.566406 378.394531 271.773438 374.878906 270.128906 371.285156 C 268.390625 367.492188 266.785156 363.644531 265.296875 359.75 C 262.175781 351.53125 259.5 343.167969 257.277344 334.660156 C 255.011719 326.179688 253.207031 317.570312 251.863281 308.890625 C 251.21875 304.769531 250.71875 300.621094 250.363281 296.460938 C 250.007812 292.546875 249.835938 288.609375 249.820312 284.671875 C 249.820312 284.660156 249.820312 284.648438 249.820312 284.632812 L 249.820312 217.695312 C 249.820312 182.800781 262.953125 149.152344 286.605469 123.488281 C 310.242188 97.820312 342.707031 81.980469 377.488281 79.121094 L 404.207031 76.9375 L 430.917969 79.121094 C 430.929688 79.121094 430.941406 79.121094 430.941406 79.121094 C 448.328125 80.582031 465.261719 85.417969 480.800781 93.332031 C 496.011719 101.0625 509.710938 111.453125 521.246094 124 C 532.820312 136.539062 542.054688 151.035156 548.519531 166.8125 C 555.132812 182.945312 558.554688 200.222656 558.59375 217.65625 C 558.59375 217.671875 558.59375 217.683594 558.59375 217.695312 L 558.59375 284.632812 C 558.59375 284.648438 558.59375 284.660156 558.59375 284.671875 C 558.582031 288.609375 558.398438 292.546875 558.054688 296.460938 C 557.6875 300.621094 557.1875 304.769531 556.554688 308.890625 C 555.210938 317.570312 553.394531 326.179688 551.140625 334.660156 C 548.914062 343.167969 546.230469 351.53125 543.109375 359.75 C 541.621094 363.644531 540.011719 367.492188 538.273438 371.285156 C 536.640625 374.878906 534.835938 378.394531 532.902344 381.832031 C 531.03125 385.097656 528.988281 388.257812 526.789062 391.328125 C 524.511719 394.515625 522.101562 397.609375 519.558594 400.609375 C 514.265625 406.867188 508.5625 412.765625 502.503906 418.269531 C 496.460938 423.8125 490.074219 428.964844 483.355469 433.664062 C 480.144531 435.917969 476.839844 438.050781 473.453125 440.039062 C 470.214844 441.933594 466.894531 443.671875 463.484375 445.238281 C 463.472656 445.238281 463.457031 445.253906 463.433594 445.253906 L 445.035156 453.628906 C 441.542969 455.222656 437.554688 455.355469 433.957031 454.011719 C 430.363281 452.652344 427.4375 449.929688 425.847656 446.4375 C 424.265625 442.933594 424.121094 438.945312 425.476562 435.351562 C 426.820312 431.753906 429.546875 428.84375 433.035156 427.25 L 451.421875 418.902344 C 453.9375 417.742188 456.371094 416.464844 458.757812 415.070312 C 461.484375 413.464844 464.128906 411.75 466.722656 409.949219 C 472.414062 405.945312 477.839844 401.585938 482.960938 396.882812 C 488.113281 392.210938 492.945312 387.207031 497.449219 381.898438 C 499.476562 379.488281 501.425781 377 503.257812 374.429688 C 504.863281 372.191406 506.351562 369.886719 507.722656 367.503906 C 509.234375 364.804688 510.644531 362.054688 511.921875 359.234375 C 513.398438 356.023438 514.765625 352.753906 516.03125 349.449219 C 518.785156 342.179688 521.152344 334.78125 523.128906 327.261719 C 525.132812 319.753906 526.722656 312.144531 527.921875 304.464844 C 528.464844 300.964844 528.882812 297.445312 529.1875 293.917969 C 529.464844 290.824219 529.609375 287.714844 529.621094 284.605469 L 529.621094 217.710938 C 529.582031 204.015625 526.894531 190.464844 521.707031 177.796875 C 516.542969 165.207031 509.167969 153.632812 499.9375 143.636719 C 490.730469 133.613281 479.800781 125.316406 467.660156 119.140625 C 455.464844 112.925781 442.175781 109.148438 428.53125 108 L 404.207031 106 L 379.859375 108 C 352.332031 110.253906 326.625 122.804688 307.914062 143.109375 C 289.183594 163.429688 278.792969 190.070312 278.792969 217.695312 L 278.792969 284.605469 C 278.808594 287.714844 278.941406 290.824219 279.214844 293.917969 C 279.53125 297.445312 279.953125 300.964844 280.492188 304.464844 C 281.679688 312.144531 283.285156 319.753906 285.289062 327.261719 C 287.25 334.78125 289.621094 342.179688 292.386719 349.449219 C 293.636719 352.753906 295.007812 356.023438 296.480469 359.234375 C 297.773438 362.054688 299.167969 364.804688 300.695312 367.503906 C 302.050781 369.886719 303.539062 372.191406 305.148438 374.429688 C 306.992188 376.984375 308.925781 379.476562 310.96875 381.886719 C 315.457031 387.191406 320.292969 392.195312 325.441406 396.871094 C 330.5625 401.558594 335.988281 405.917969 341.691406 409.910156 C 344.273438 411.726562 346.933594 413.425781 349.660156 415.03125 C 352.03125 416.425781 354.480469 417.703125 356.996094 418.851562 Z M 375.511719 427.25 "/></g><g clip-rule="nonzero" clip-path="url(#c389158a1f)"><path style=" " d="M 128.964844 718.203125 C 128.964844 722.046875 127.4375 725.734375 124.722656 728.449219 C 122.011719 731.171875 118.324219 732.6875 114.476562 732.6875 C 110.632812 732.6875 106.945312 731.171875 104.230469 728.449219 C 101.519531 725.734375 99.992188 722.046875 99.992188 718.203125 L 99.992188 685.28125 C 99.992188 676.351562 100.453125 667.410156 101.375 658.519531 C 102.203125 650.605469 103.480469 642.746094 105.234375 634.988281 C 106.828125 627.945312 108.828125 621.015625 111.226562 614.207031 C 113.492188 607.835938 116.152344 601.617188 119.207031 595.585938 C 122.144531 589.765625 125.460938 584.144531 129.136719 578.757812 C 132.769531 573.425781 136.746094 568.328125 141.042969 563.523438 C 145.414062 558.625 150.101562 554.015625 155.078125 549.722656 C 160.28125 545.242188 165.761719 541.082031 171.460938 537.289062 C 173.675781 535.816406 175.902344 534.40625 178.167969 533.050781 C 180.496094 531.640625 182.855469 530.285156 185.25 528.992188 C 187.132812 527.964844 189.03125 526.980469 190.941406 526.015625 C 192.902344 525.03125 194.878906 524.082031 196.878906 523.144531 C 204.347656 519.710938 212 516.679688 219.796875 514.085938 C 228.632812 511.148438 237.613281 508.632812 246.699219 506.566406 C 250.046875 505.804688 253.402344 505.105469 256.773438 504.445312 C 260.316406 503.761719 263.875 503.128906 267.441406 502.550781 C 270.0625 502.117188 272.683594 501.722656 275.316406 501.351562 C 278.042969 500.96875 280.785156 500.613281 283.507812 500.285156 C 293.019531 499.152344 302.566406 498.324219 312.125 497.808594 C 323.070312 497.21875 334.015625 496.941406 344.972656 496.96875 L 398.941406 496.96875 C 402.785156 496.96875 406.472656 498.496094 409.1875 501.21875 C 411.898438 503.933594 413.425781 507.621094 413.425781 511.453125 C 413.425781 515.296875 411.898438 518.984375 409.1875 521.699219 C 406.472656 524.421875 402.785156 525.9375 398.941406 525.9375 L 344.945312 525.9375 C 344.933594 525.9375 344.917969 525.9375 344.90625 525.9375 C 334.488281 525.910156 324.085938 526.175781 313.695312 526.742188 C 304.75 527.214844 295.835938 527.992188 286.960938 529.058594 C 284.417969 529.363281 281.875 529.691406 279.347656 530.046875 C 276.925781 530.390625 274.5 530.746094 272.089844 531.140625 C 268.8125 531.679688 265.546875 532.257812 262.292969 532.890625 C 259.226562 533.484375 256.183594 534.128906 253.140625 534.8125 C 244.960938 536.671875 236.890625 538.9375 228.933594 541.582031 C 222.152344 543.835938 215.515625 546.457031 209.035156 549.457031 C 207.308594 550.246094 205.613281 551.0625 203.925781 551.90625 C 202.304688 552.722656 200.6875 553.566406 199.09375 554.433594 C 197.078125 555.527344 195.074219 556.675781 193.113281 557.859375 C 191.21875 559.003906 189.359375 560.175781 187.515625 561.402344 C 182.800781 564.535156 178.285156 567.972656 173.992188 571.671875 C 169.976562 575.136719 166.183594 578.851562 162.652344 582.8125 C 159.203125 586.6875 156 590.769531 153.078125 595.0625 C 150.113281 599.421875 147.429688 603.964844 145.058594 608.664062 C 142.554688 613.589844 140.382812 618.671875 138.539062 623.875 C 136.523438 629.601562 134.839844 635.4375 133.496094 641.347656 C 132.007812 648 130.902344 654.730469 130.191406 661.511719 C 129.371094 669.410156 128.964844 677.339844 128.964844 685.28125 Z M 128.964844 718.203125 "/></g><g clip-rule="nonzero" clip-path="url(#000cfac8b6)"><path style="" d="M 397.625 525.9375 C 393.777344 525.9375 390.089844 524.421875 387.378906 521.699219 C 384.664062 518.984375 383.136719 515.296875 383.136719 511.453125 C 383.136719 507.621094 384.664062 503.933594 387.378906 501.21875 C 390.089844 498.496094 393.777344 496.96875 397.625 496.96875 L 464.761719 496.96875 C 482.949219 496.925781 501.121094 497.769531 519.21875 499.507812 C 533.691406 500.90625 548.085938 503.207031 562.28125 506.394531 C 570.027344 508.148438 577.703125 510.203125 585.289062 512.570312 C 592.085938 514.691406 598.789062 517.128906 605.359375 519.867188 C 611.324219 522.34375 617.160156 525.109375 622.875 528.125 C 628.15625 530.914062 633.304688 533.984375 638.285156 537.304688 C 644 541.109375 649.476562 545.257812 654.667969 549.734375 C 659.644531 554.027344 664.332031 558.636719 668.707031 563.535156 C 673 568.339844 676.976562 573.4375 680.609375 578.769531 C 684.273438 584.15625 687.589844 589.78125 690.539062 595.601562 C 693.582031 601.632812 696.257812 607.847656 698.507812 614.222656 C 700.917969 621.015625 702.917969 627.957031 704.5 634.988281 C 706.25 642.757812 707.527344 650.605469 708.359375 658.519531 C 709.28125 667.410156 709.742188 676.351562 709.742188 685.28125 L 709.742188 718.203125 C 709.742188 722.046875 708.214844 725.734375 705.5 728.449219 C 702.789062 731.171875 699.101562 732.6875 695.253906 732.6875 C 691.410156 732.6875 687.722656 731.171875 685.007812 728.449219 C 682.296875 725.734375 680.769531 722.046875 680.769531 718.203125 L 680.769531 685.28125 C 680.769531 677.351562 680.359375 669.410156 679.542969 661.511719 C 678.832031 654.742188 677.726562 648.011719 676.238281 641.363281 C 674.894531 635.4375 673.222656 629.601562 671.195312 623.886719 C 669.351562 618.6875 667.175781 613.601562 664.6875 608.675781 C 662.304688 603.976562 659.617188 599.433594 656.65625 595.074219 C 653.746094 590.78125 650.542969 586.699219 647.09375 582.828125 C 643.566406 578.863281 639.773438 575.148438 635.753906 571.6875 C 631.460938 567.984375 626.945312 564.550781 622.230469 561.414062 C 618.054688 558.636719 613.75 556.066406 609.324219 553.722656 C 604.398438 551.128906 599.367188 548.746094 594.230469 546.613281 C 588.476562 544.214844 582.601562 542.082031 576.648438 540.226562 C 569.816406 538.09375 562.902344 536.234375 555.921875 534.667969 C 542.898438 531.734375 529.714844 529.625 516.4375 528.347656 C 499.277344 526.703125 482.066406 525.898438 464.828125 525.9375 C 464.816406 525.9375 464.800781 525.9375 464.789062 525.9375 Z M 397.625 525.9375 "/></g></g></svg>