<svg xmlns="http://www.w3.org/2000/svg"
     viewBox="0 0 810 809.999993"
     fill="currentColor">
  <defs>
    <clipPath id="6bab563c04">
      <path d="M 340 128.714844 L 470 128.714844 L 470 258 L 340 258 Z"/>
    </clipPath>
    <clipPath id="bc75efe83b">
      <path d="M 599 552 L 729 552 L 729 681.464844 L 599 681.464844 Z"/>
    </clipPath>
  </defs>
  <g id="11ac27468c">
    <path d="M 714.761719 389.585938 C 718.53125 389.585938 722.144531 391.082031 724.804688 393.742188 C 727.464844 396.414062 728.960938 400.015625 728.960938 403.789062 C 728.960938 407.558594 727.464844 411.171875 724.804688 413.832031 C 722.144531 416.492188 718.53125 417.988281 714.761719 417.988281 L 198.714844 417.988281 C 194.960938 417.988281 191.34375 416.492188 188.671875 413.832031 C 186.015625 411.171875 184.515625 407.558594 184.515625 403.789062 C 184.515625 400.015625 186.015625 396.414062 188.671875 393.742188 C 191.34375 391.082031 194.960938 389.585938 198.714844 389.585938 Z"/>
    <path d="M 714.761719 176.644531 C 718.53125 176.644531 722.144531 178.140625 724.804688 180.800781 C 727.464844 183.460938 728.960938 187.078125 728.960938 190.847656 C 728.960938 194.617188 727.464844 198.234375 724.804688 200.894531 C 722.144531 203.550781 718.53125 205.050781 714.761719 205.050781 L 458.035156 205.050781 C 454.265625 205.050781 450.652344 203.550781 447.996094 200.894531 C 445.335938 198.234375 443.839844 194.617188 443.839844 190.847656 C 443.839844 187.078125 445.335938 183.460938 447.996094 180.800781 C 450.652344 178.140625 454.265625 176.644531 458.035156 176.644531 Z"/>
    <path d="M 606.46875 602.523438 C 610.226562 602.523438 613.839844 604.023438 616.511719 606.683594 C 619.171875 609.355469 620.667969 612.957031 620.667969 616.726562 C 620.667969 620.496094 619.171875 624.113281 616.511719 626.773438 C 613.839844 629.433594 610.226562 630.929688 606.46875 630.929688 L 95.457031 630.929688 C 91.699219 630.929688 88.085938 629.433594 85.414062 626.773438 C 82.753906 624.113281 81.257812 620.496094 81.257812 616.726562 C 81.257812 612.957031 82.753906 609.355469 85.414062 606.683594 C 88.085938 604.023438 91.699219 602.523438 95.457031 602.523438 Z"/>
    <g clip-path="url(#6bab563c04)">
      <path d="M 340.527344 193.273438 C 340.527344 176.140625 347.332031 159.703125 359.4375 147.59375 C 371.542969 135.46875 387.988281 128.664062 405.117188 128.664062 C 422.246094 128.664062 438.675781 135.46875 450.78125 147.59375 C 462.890625 159.703125 469.703125 176.140625 469.703125 193.273438 C 469.703125 210.410156 462.890625 226.84375 450.78125 238.957031 C 438.675781 251.082031 422.246094 257.886719 405.117188 257.886719 C 387.988281 257.886719 371.542969 251.082031 359.4375 238.957031 C 347.332031 226.84375 340.527344 210.410156 340.527344 193.273438 Z M 368.925781 193.273438 C 368.925781 183.679688 372.730469 174.460938 379.519531 167.671875 C 386.308594 160.890625 395.511719 157.070312 405.117188 157.070312 C 414.707031 157.070312 423.921875 160.890625 430.710938 167.671875 C 437.488281 174.460938 441.308594 183.679688 441.308594 193.273438 C 441.308594 202.867188 437.488281 212.085938 430.710938 218.878906 C 423.921875 225.65625 414.707031 229.480469 405.117188 229.480469 C 395.511719 229.480469 386.308594 225.65625 379.519531 218.878906 C 372.730469 212.085938 368.925781 202.867188 368.925781 193.273438 Z"/>
    </g>
    <path d="M 81.039062 403.839844 C 81.039062 386.71875 87.839844 370.269531 99.949219 358.15625 C 112.054688 346.046875 128.5 339.230469 145.628906 339.230469 C 162.742188 339.230469 179.1875 346.046875 191.292969 358.15625 C 203.402344 370.269531 210.214844 386.71875 210.214844 403.839844 C 210.214844 420.972656 203.402344 437.421875 191.292969 449.535156 C 179.1875 461.644531 162.742188 468.449219 145.628906 468.449219 C 128.5 468.449219 112.054688 461.644531 99.949219 449.535156 C 87.839844 437.421875 81.039062 420.972656 81.039062 403.839844 Z"/>
    <g clip-path="url(#bc75efe83b)">
      <path d="M 599.785156 616.777344 C 599.785156 599.644531 606.597656 583.207031 618.707031 571.097656 C 630.8125 558.972656 647.257812 552.167969 664.371094 552.167969 C 681.5 552.167969 697.945312 558.972656 710.050781 571.097656 C 722.160156 583.207031 728.960938 599.644531 728.960938 616.777344 C 728.960938 633.914062 722.160156 650.347656 710.050781 662.460938 C 697.945312 674.585938 681.5 681.390625 664.371094 681.390625 C 647.257812 681.390625 630.8125 674.585938 618.707031 662.460938 C 606.597656 650.347656 599.785156 633.914062 599.785156 616.777344 Z M 628.179688 616.777344 C 628.179688 607.183594 632 597.964844 638.777344 591.175781 C 645.566406 584.394531 654.78125 580.574219 664.371094 580.574219 C 673.976562 580.574219 683.179688 584.394531 689.96875 591.175781 C 696.757812 597.964844 700.566406 607.183594 700.566406 616.777344 C 700.566406 626.371094 696.757812 635.589844 689.96875 642.382812 C 683.179688 649.160156 673.976562 652.984375 664.371094 652.984375 C 654.78125 652.984375 645.566406 649.160156 638.777344 642.382812 C 632 635.589844 628.179688 626.371094 628.179688 616.777344 Z"/>
    </g>
    <path d="M 350.90625 176.644531 C 354.660156 176.644531 358.277344 178.140625 360.949219 180.800781 C 363.605469 183.460938 365.101562 187.078125 365.101562 190.847656 C 365.101562 194.617188 363.605469 198.234375 360.949219 200.894531 C 358.277344 203.550781 354.660156 205.050781 350.90625 205.050781 L 95.457031 205.050781 C 91.699219 205.050781 88.085938 203.550781 85.414062 200.894531 C 82.753906 198.234375 81.257812 194.617188 81.257812 190.847656 C 81.257812 187.078125 82.753906 183.460938 85.414062 180.800781 C 88.085938 178.140625 91.699219 176.644531 95.457031 176.644531 Z"/>
  </g>
</svg>
