<svg xmlns="http://www.w3.org/2000/svg" xmlns:xlink="http://www.w3.org/1999/xlink" width="1080" zoomAndPan="magnify" viewBox="0 0 810 809.999993" height="1080" preserveAspectRatio="xMidYMid meet" version="1.2">

<defs><clipPath id="6c7a0b8bdd"><path d="M 52.003906 98 L 757 98 L 757 716 L 52.003906 716 Z M 52.003906 98 "/></clipPath></defs><g id="993f3b5fab"><g clip-rule="nonzero" clip-path="url(#6c7a0b8bdd)"><path style="" d="M 641.367188 593.113281 L 648.390625 603.105469 C 640.957031 619.121094 642.4375 638.078125 652.765625 652.816406 C 662.320312 666.480469 675.023438 684.617188 684.691406 698.441406 C 690.710938 707.019531 699.878906 712.859375 710.183594 714.683594 C 720.492188 716.507812 731.117188 714.136719 739.691406 708.136719 C 748.289062 702.113281 754.125 692.941406 755.949219 682.632812 C 757.75 672.320312 755.402344 661.6875 749.40625 653.109375 L 717.480469 607.484375 C 707.152344 592.746094 689.84375 584.855469 672.285156 586.359375 L 665.285156 576.367188 C 719.257812 529.601562 730.25 448.523438 688.40625 388.753906 C 643.738281 324.921875 555.695312 309.386719 491.894531 354.074219 C 428.117188 398.765625 412.585938 486.871094 457.257812 550.679688 C 499.101562 610.449219 579 627.878906 641.367188 593.113281 Z M 693.5625 624.253906 C 689.296875 618.136719 682.113281 614.851562 674.839844 615.46875 C 671.761719 622.085938 672.398438 629.957031 676.6875 636.070312 C 686.242188 649.734375 698.941406 667.871094 708.609375 681.671875 C 710.160156 683.933594 712.554688 685.460938 715.246094 685.917969 C 717.9375 686.394531 720.695312 685.78125 722.953125 684.226562 C 722.953125 684.207031 722.953125 684.207031 722.953125 684.207031 C 725.1875 682.632812 726.714844 680.234375 727.195312 677.542969 C 727.671875 674.875 727.058594 672.089844 725.484375 669.855469 Z M 508.632812 378.007812 C 559.230469 342.554688 629.074219 354.875 664.488281 405.496094 C 699.921875 456.121094 687.609375 525.996094 637.011719 561.425781 C 586.433594 596.875 516.589844 584.558594 481.15625 533.933594 C 445.742188 483.3125 458.054688 413.4375 508.632812 378.007812 Z M 388.121094 137.714844 C 406.132812 126.902344 454.953125 101.898438 520.125 98.707031 C 610.332031 94.28125 653.359375 113.488281 653.359375 113.488281 C 658.695312 115.792969 662.140625 121.0625 662.140625 126.878906 L 662.140625 148.917969 L 685.738281 148.917969 C 693.949219 148.917969 701.839844 152.179688 707.652344 157.996094 C 713.46875 163.8125 716.726562 171.707031 716.726562 179.921875 C 716.726562 223.765625 716.726562 340.207031 716.726562 340.207031 C 716.726562 348.28125 710.207031 354.804688 702.136719 354.804688 C 694.085938 354.804688 687.542969 348.28125 687.542969 340.207031 C 687.542969 340.207031 687.542969 223.765625 687.542969 179.921875 C 687.542969 179.441406 687.359375 178.984375 687.015625 178.644531 C 686.675781 178.300781 686.21875 178.117188 685.738281 178.117188 L 662.140625 178.117188 L 662.140625 302.3125 C 662.140625 310.367188 655.617188 316.914062 647.546875 316.914062 C 639.496094 316.914062 632.953125 310.367188 632.953125 302.3125 L 632.953125 137.351562 C 617.332031 132.832031 580.640625 124.964844 521.5625 127.859375 C 462.089844 130.78125 417.785156 153.820312 402.53125 163.105469 C 402.53125 163.402344 402.53125 163.722656 402.53125 164.019531 C 403.011719 218.222656 402.347656 492.960938 402.347656 492.960938 C 402.324219 498.234375 399.476562 503.089844 394.871094 505.667969 C 390.242188 508.246094 384.609375 508.132812 380.117188 505.371094 C 380.117188 505.371094 343.953125 483.769531 257.960938 476.832031 C 191.878906 471.496094 133.027344 489.8125 133.027344 489.8125 C 128.582031 491.183594 123.769531 490.386719 120.03125 487.625 C 116.289062 484.863281 114.078125 480.507812 114.078125 475.875 L 114.078125 178.117188 L 83.203125 178.117188 C 82.726562 178.117188 82.269531 178.300781 81.925781 178.644531 C 81.585938 178.984375 81.378906 179.441406 81.378906 179.921875 C 81.378906 240.398438 81.378906 450.234375 81.378906 510.6875 C 81.378906 511.167969 81.585938 511.625 81.925781 511.964844 C 82.269531 512.308594 82.726562 512.492188 83.203125 512.492188 L 299.328125 512.492188 C 309.839844 512.492188 334.988281 514.179688 352.546875 535.644531 L 408.253906 535.644531 C 416.328125 535.644531 422.847656 542.195312 422.847656 550.246094 C 422.847656 558.324219 416.328125 564.847656 408.253906 564.847656 L 345.070312 564.847656 C 340.03125 564.847656 335.332031 562.246094 332.664062 557.957031 C 322.8125 542.078125 305.871094 541.691406 299.328125 541.691406 L 299.347656 541.691406 L 83.203125 541.691406 C 74.972656 541.691406 67.105469 538.429688 61.289062 532.613281 C 55.476562 526.792969 52.191406 518.902344 52.191406 510.6875 C 52.191406 450.234375 52.191406 240.398438 52.191406 179.921875 C 52.191406 171.707031 55.476562 163.8125 61.289062 157.996094 C 67.105469 152.179688 74.972656 148.917969 83.203125 148.917969 L 114.078125 148.917969 L 114.078125 126.878906 C 114.078125 121.0625 117.519531 115.792969 122.855469 113.488281 C 122.855469 113.488281 165.886719 94.28125 256.117188 98.707031 C 321.261719 101.898438 370.105469 126.902344 388.121094 137.714844 Z M 143.265625 137.351562 L 143.265625 457.03125 C 167.503906 451.535156 212.128906 443.847656 260.3125 447.722656 C 315.609375 452.195312 352.230469 462.507812 373.207031 470.378906 C 373.34375 403.71875 373.730469 208.960938 373.367188 164.269531 L 373.34375 162.902344 C 357.746094 153.480469 313.691406 130.757812 254.679688 127.859375 C 195.574219 124.964844 158.90625 132.832031 143.265625 137.351562 Z M 393.933594 168.46875 C 392.109375 169.199219 390.125 169.5625 388.164062 169.515625 C 388.027344 169.515625 387.890625 169.515625 387.753906 169.515625 C 386 169.515625 384.289062 169.199219 382.691406 168.605469 C 386.273438 169.996094 390.171875 170.40625 393.933594 168.46875 "/></g></g></svg>