<svg xmlns="http://www.w3.org/2000/svg" xmlns:xlink="http://www.w3.org/1999/xlink" width="1080" zoomAndPan="magnify" viewBox="0 0 810 809.999993" height="1080" preserveAspectRatio="xMidYMid meet" version="1.2"><defs><clipPath id="61b3123930"><path d="M 288.386719 372.074219 L 781.984375 372.074219 L 781.984375 798.34375 L 288.386719 798.34375 Z M 288.386719 372.074219 "/></clipPath><clipPath id="036a1af02f"><path d="M 93 176 L 150 176 L 150 235 L 93 235 Z M 93 176 "/></clipPath><clipPath id="8e263e7a7b"><path d="M 148.847656 11.632812 L 570.84375 141.375 L 504.925781 355.777344 L 82.929688 226.035156 Z M 148.847656 11.632812 "/></clipPath><clipPath id="615e941a21"><path d="M 148.847656 11.632812 L 570.84375 141.375 L 504.925781 355.777344 L 82.929688 226.035156 Z M 148.847656 11.632812 "/></clipPath><clipPath id="b83be4a54f"><path d="M 148.847656 11.632812 L 570.84375 141.375 L 504.925781 355.777344 L 82.929688 226.035156 Z M 148.847656 11.632812 "/></clipPath><clipPath id="4714bed94d"><path d="M 101.03125 167.695312 L 159.273438 185.601562 L 141.324219 243.992188 L 83.078125 226.085938 Z M 101.03125 167.695312 "/></clipPath><clipPath id="5c490e1ef7"><path d="M 174 145 L 232 145 L 232 210 L 174 210 Z M 174 145 "/></clipPath><clipPath id="2c7d3e94db"><path d="M 148.847656 11.632812 L 570.84375 141.375 L 504.925781 355.777344 L 82.929688 226.035156 Z M 148.847656 11.632812 "/></clipPath><clipPath id="62290faa33"><path d="M 148.847656 11.632812 L 570.84375 141.375 L 504.925781 355.777344 L 82.929688 226.035156 Z M 148.847656 11.632812 "/></clipPath><clipPath id="8e62524f38"><path d="M 148.847656 11.632812 L 570.84375 141.375 L 504.925781 355.777344 L 82.929688 226.035156 Z M 148.847656 11.632812 "/></clipPath><clipPath id="a2dfce11fa"><path d="M 258 147 L 330 147 L 330 228 L 258 228 Z M 258 147 "/></clipPath><clipPath id="5074949944"><path d="M 148.847656 11.632812 L 570.84375 141.375 L 504.925781 355.777344 L 82.929688 226.035156 Z M 148.847656 11.632812 "/></clipPath><clipPath id="b84dbee6b6"><path d="M 148.847656 11.632812 L 570.84375 141.375 L 504.925781 355.777344 L 82.929688 226.035156 Z M 148.847656 11.632812 "/></clipPath><clipPath id="ac29028c88"><path d="M 148.847656 11.632812 L 570.84375 141.375 L 504.925781 355.777344 L 82.929688 226.035156 Z M 148.847656 11.632812 "/></clipPath><clipPath id="eddbc43bb4"><path d="M 359 160 L 434 160 L 434 246 L 359 246 Z M 359 160 "/></clipPath><clipPath id="d2903a9499"><path d="M 148.847656 11.632812 L 570.84375 141.375 L 504.925781 355.777344 L 82.929688 226.035156 Z M 148.847656 11.632812 "/></clipPath><clipPath id="2b0526ce63"><path d="M 148.847656 11.632812 L 570.84375 141.375 L 504.925781 355.777344 L 82.929688 226.035156 Z M 148.847656 11.632812 "/></clipPath><clipPath id="ac170e6085"><path d="M 148.847656 11.632812 L 570.84375 141.375 L 504.925781 355.777344 L 82.929688 226.035156 Z M 148.847656 11.632812 "/></clipPath><clipPath id="4e7196b4a9"><path d="M 449 126 L 549 126 L 549 233 L 449 233 Z M 449 126 "/></clipPath><clipPath id="938cefc2e5"><path d="M 148.847656 11.632812 L 570.84375 141.375 L 504.925781 355.777344 L 82.929688 226.035156 Z M 148.847656 11.632812 "/></clipPath><clipPath id="d660f58721"><path d="M 148.847656 11.632812 L 570.84375 141.375 L 504.925781 355.777344 L 82.929688 226.035156 Z M 148.847656 11.632812 "/></clipPath><clipPath id="63d7e2e9a2"><path d="M 148.847656 11.632812 L 570.84375 141.375 L 504.925781 355.777344 L 82.929688 226.035156 Z M 148.847656 11.632812 "/></clipPath></defs><g id="86c3d01fb3"><g clip-rule="nonzero" clip-path="url(#61b3123930)"><path style=" stroke:none;fill-rule:evenodd;fill:#1b1b1b;fill-opacity:1;" d="M 560.660156 777.738281 C 599.601562 787.316406 636.050781 780.191406 662.5625 766.542969 C 669.332031 763.058594 677.863281 760.976562 683.6875 757.832031 C 696.863281 750.722656 709.800781 734.925781 720.964844 723.003906 C 734.15625 708.925781 749.339844 695.457031 754.527344 684.433594 C 761.109375 670.453125 765.226562 645.558594 765.707031 628.457031 C 766.441406 602.75 762.816406 569.382812 755.769531 547.59375 C 752.351562 537.019531 741.914062 524.230469 732.152344 512.761719 C 722.457031 501.355469 714.414062 489.417969 704.820312 481.664062 C 674.871094 457.488281 619.953125 458.773438 576.8125 467.980469 C 561.761719 471.191406 545.96875 474.371094 533.320312 479.175781 C 520.199219 484.15625 508.984375 496.652344 492.304688 496.589844 C 474.738281 496.53125 467.789062 486.785156 455.027344 485.390625 C 423.792969 481.988281 390.5 493.707031 369.273438 506.542969 C 330.574219 529.949219 311.324219 584.628906 307.136719 637.164062 C 306.332031 647.394531 305.195312 659.679688 305.894531 669.503906 C 308.125 700.628906 334.46875 743.710938 359.332031 762.808594 C 400.757812 794.625 482.535156 786.066406 517.164062 755.34375 C 534.550781 762.605469 545.675781 774.050781 560.660156 777.738281 Z M 461.238281 416.976562 C 460.808594 446.964844 457.625 482.3125 491.066406 477.929688 C 485.410156 470.316406 474.019531 461.835938 477.398438 449.320312 C 489.835938 455.109375 488.988281 474.207031 504.734375 476.683594 C 505.953125 475.007812 508.050781 474.199219 509.710938 472.953125 C 509.113281 443.5625 479.011719 428.914062 461.238281 416.976562 Z M 518.40625 467.980469 C 545.074219 466.855469 544.820312 428.097656 554.441406 405.777344 C 544.988281 406.125 535.957031 406.042969 530.832031 402.042969 C 530.738281 428.070312 522.953125 446.40625 518.40625 467.980469 Z M 532.078125 392.09375 C 535.441406 400.59375 547.179688 399.671875 555.683594 397.074219 C 555.40625 384.042969 535.464844 383.140625 532.078125 392.09375 Z M 573.085938 390.851562 C 568.636719 415.832031 560.03125 436.667969 553.199219 459.273438 C 599.765625 452.429688 655.398438 435.988281 698.605469 458.03125 C 708.917969 463.289062 730.34375 479.339844 738.367188 487.882812 C 746.113281 496.125 749.316406 506.257812 755.769531 516.492188 C 769.371094 538.097656 777.039062 554.792969 780.625 587.402344 C 783.550781 614.066406 781.699219 633.53125 775.652344 660.796875 C 767.851562 695.945312 751.886719 707.988281 729.675781 731.707031 C 718.636719 743.488281 703.785156 761.800781 687.417969 770.277344 C 677.855469 775.226562 665.761719 778.917969 655.105469 783.957031 C 635.007812 793.460938 613.261719 799.714844 588 797.644531 C 560.621094 795.402344 529.929688 789.003906 512.191406 772.761719 C 488.351562 793.066406 440.878906 800.859375 401.585938 797.644531 C 383.425781 788.6875 361.984375 786.328125 346.910156 772.761719 C 340.886719 767.351562 335.445312 756.992188 328.265625 749.128906 C 305.488281 724.179688 287.125 691.753906 288.5 642.136719 C 289.097656 620.496094 297.109375 588.15625 304.65625 567.503906 C 316.226562 535.796875 331.3125 519.296875 354.363281 500.324219 C 376.84375 481.820312 409.6875 468.011719 450.058594 470.472656 C 441.984375 447.257812 452.417969 410.875 447.570312 387.121094 C 465.460938 378.316406 471.496094 401.6875 483.605469 412 C 491.394531 418.625 499.585938 421.246094 507.222656 426.929688 C 515.140625 413.261719 507.859375 397.476562 515.917969 384.628906 C 527.921875 365.492188 565.671875 369.757812 573.085938 390.851562 "/></g><path style=" stroke:none;fill-rule:evenodd;fill:#c4b782;fill-opacity:1;" d="M 555.683594 397.074219 C 547.179688 399.671875 535.441406 400.59375 532.078125 392.09375 C 535.464844 383.140625 555.40625 384.042969 555.683594 397.074219 "/><path style=" stroke:none;fill-rule:evenodd;fill:#afa36e;fill-opacity:1;" d="M 530.832031 443.097656 C 538.78125 442.964844 542.695312 426.226562 538.289062 421.953125 C 535.667969 427.542969 529.335938 434.882812 530.832031 443.097656 Z M 530.832031 402.042969 C 535.957031 406.042969 544.988281 406.125 554.441406 405.777344 C 544.820312 428.097656 545.074219 466.855469 518.40625 467.980469 C 522.953125 446.40625 530.738281 428.070312 530.832031 402.042969 "/><path style=" stroke:none;fill-rule:evenodd;fill:#93ff8d;fill-opacity:1;" d="M 509.710938 472.953125 C 508.050781 474.199219 505.953125 475.007812 504.734375 476.683594 C 488.988281 474.207031 489.835938 455.109375 477.398438 449.320312 C 474.019531 461.835938 485.410156 470.316406 491.066406 477.929688 C 457.625 482.3125 460.808594 446.964844 461.238281 416.976562 C 479.011719 428.914062 509.113281 443.5625 509.710938 472.953125 "/><path style=" stroke:none;fill-rule:evenodd;fill:#1b1b1b;fill-opacity:1;" d="M 538.289062 421.953125 C 542.695312 426.226562 538.78125 442.964844 530.832031 443.097656 C 529.335938 434.882812 535.667969 427.542969 538.289062 421.953125 "/><path style=" stroke:none;fill-rule:evenodd;fill:#ff0000;fill-opacity:1;" d="M 361.820312 723.003906 C 367.921875 727.296875 379.8125 716.445312 373.003906 711.808594 C 368.695312 716.078125 362.9375 714.011719 361.820312 723.003906 Z M 670.011719 708.074219 C 673.039062 712.023438 679.34375 716.015625 683.6875 711.808594 C 683.289062 704.945312 670.894531 696.75 670.011719 708.074219 Z M 349.390625 713.042969 C 351.875 713.042969 354.359375 713.042969 356.847656 713.042969 C 357.855469 708.667969 361.851562 707.277344 361.820312 701.851562 C 355.886719 699.242188 348.042969 704.328125 349.390625 713.042969 Z M 688.664062 691.902344 C 692.453125 693.253906 697.625 697.882812 701.085938 695.632812 C 701.03125 693.921875 701.675781 692.902344 702.332031 691.902344 C 697.738281 690.277344 696.378906 685.417969 689.898438 685.679688 C 688.859375 687.121094 688.261719 689.019531 688.664062 691.902344 Z M 382.945312 664.535156 C 386.015625 666.984375 393.800781 666.1875 394.136719 662.035156 C 392.007812 661.539062 394.394531 660.441406 394.136719 658.308594 C 388.445312 655.222656 383.179688 658.546875 382.945312 664.535156 Z M 336.960938 662.035156 C 343.3125 663.003906 345.117188 659.421875 345.664062 654.585938 C 341.363281 648.113281 331.347656 655.167969 336.960938 662.035156 Z M 405.320312 642.136719 C 401.636719 648.160156 409.34375 653 414.015625 648.359375 C 414.175781 645.300781 414.203125 642.367188 412.773438 640.894531 C 408.992188 642.75 407.9375 640.492188 405.320312 642.136719 Z M 632.734375 639.652344 C 631.835938 643.453125 634.003906 644.179688 633.980469 647.113281 C 639.34375 647.097656 643.871094 646.238281 643.929688 640.894531 C 642.21875 635.035156 636.910156 638.269531 632.734375 639.652344 Z M 338.207031 644.628906 C 342.898438 644.769531 344.890625 642.195312 345.664062 638.402344 C 343.46875 637.292969 342.042969 635.40625 339.449219 634.675781 C 336.714844 638.082031 334.832031 640.8125 338.207031 644.628906 Z M 365.546875 637.164062 C 368.839844 638.84375 368.941406 643.722656 374.25 643.382812 C 375.898438 641.304688 377.535156 639.214844 376.734375 634.675781 C 372.328125 632.351562 367.757812 633.941406 365.546875 637.164062 Z M 688.664062 638.402344 C 692.8125 644.71875 699.230469 640.332031 699.839844 633.4375 C 694.992188 628.679688 689.769531 632.738281 688.664062 638.402344 Z M 599.183594 638.402344 C 602.488281 638.390625 606.28125 638.882812 607.882812 637.164062 C 607.882812 635.097656 607.882812 633.015625 607.882812 630.941406 C 604.074219 631.84375 603.355469 629.671875 600.425781 629.703125 C 598.714844 631.304688 599.191406 635.101562 599.183594 638.402344 Z M 525.863281 624.726562 C 520.917969 624.363281 519.398438 629.128906 513.429688 630.941406 C 497.941406 635.660156 485.183594 629.863281 474.90625 625.972656 C 473.039062 631.558594 464.25 630.222656 466.210938 639.652344 C 493.761719 644.78125 514.570312 643.761719 535.804688 635.921875 C 537.355469 629.128906 530.339844 625.058594 525.863281 624.726562 Z M 621.550781 625.972656 C 625.589844 628.015625 629.242188 626.453125 632.734375 624.726562 C 633.246094 615.472656 620.402344 615.769531 621.550781 625.972656 Z M 448.808594 584.914062 C 425.992188 600.789062 406.007812 596.546875 377.976562 591.132812 C 375.957031 597.828125 367.007812 597.574219 368.03125 607.304688 C 372.734375 610.472656 379.496094 606.851562 380.457031 602.335938 C 384.6875 602.246094 389.132812 601.941406 390.402344 604.820312 C 390.207031 608.777344 387.582031 610.289062 387.917969 614.773438 C 389.523438 616.484375 393.3125 616 396.617188 616.015625 C 397.746094 612.585938 397.003906 607.273438 399.097656 604.820312 C 402.695312 607.027344 410.246094 605.273438 412.773438 608.554688 C 410.996094 610.21875 410.996094 615.601562 412.773438 617.257812 C 414.84375 617.257812 416.914062 617.253906 418.988281 617.257812 C 422.046875 615.097656 420.632812 608.460938 421.472656 607.304688 C 426.925781 605.699219 428.128906 605.492188 432.65625 604.820312 C 432.664062 611.445312 435.746094 614.996094 441.351562 616.015625 C 446.886719 611.445312 443.839844 606.644531 441.351562 601.085938 C 449.417969 594.289062 454.105469 603.160156 463.722656 599.839844 C 465.46875 592.601562 453.46875 581.679688 448.808594 584.914062 Z M 638.949219 566.253906 C 625.445312 583.902344 595.660156 589.558594 573.085938 584.914062 C 568.375 582.171875 565.867188 577.214844 556.929688 578.695312 C 556.070312 585.296875 553.8125 590.5 553.199219 597.359375 C 562.582031 599.585938 562.429688 588.84375 569.359375 592.382812 C 570.058594 598.058594 567.148438 600.125 568.113281 606.0625 C 569.714844 607.78125 573.515625 607.289062 576.8125 607.304688 C 579.015625 604.953125 577.726562 599.09375 578.054688 594.871094 C 582.667969 595.644531 590.847656 592.84375 591.730469 597.359375 C 592.523438 602.304688 588.445312 602.355469 589.238281 607.304688 C 590.398438 608.632812 593.824219 607.695312 592.964844 611.035156 C 600.519531 609.082031 600.234375 604.777344 599.183594 596.109375 C 602.175781 596.625 601.886719 593.839844 605.394531 594.871094 C 604.386719 599.171875 607.71875 600.121094 605.394531 602.335938 C 608.917969 602.539062 610.570312 604.609375 614.097656 604.820312 C 618.390625 601.859375 613.019531 596.511719 616.574219 592.382812 C 622.761719 591.996094 619.679688 600.882812 625.28125 601.085938 C 629.105469 602.011719 627.671875 597.675781 631.496094 598.605469 C 632.304688 593.230469 629.347656 591.628906 627.765625 588.644531 C 633.507812 586.519531 635.613281 580.734375 642.679688 579.9375 C 644.820312 581.117188 644.710938 584.539062 648.890625 583.675781 C 650.734375 583.023438 652.027344 581.832031 653.867188 581.1875 C 653.046875 573.296875 646.546875 571.089844 642.679688 566.253906 C 641.4375 566.253906 640.191406 566.253906 638.949219 566.253906 Z M 517.164062 755.34375 C 482.535156 786.066406 400.757812 794.625 359.332031 762.808594 C 334.46875 743.710938 308.125 700.628906 305.894531 669.503906 C 305.195312 659.679688 306.332031 647.394531 307.136719 637.164062 C 311.324219 584.628906 330.574219 529.949219 369.273438 506.542969 C 390.5 493.707031 423.792969 481.988281 455.027344 485.390625 C 467.789062 486.785156 474.738281 496.53125 492.304688 496.589844 C 508.984375 496.652344 520.199219 484.15625 533.320312 479.175781 C 545.96875 474.371094 561.761719 471.191406 576.8125 467.980469 C 619.953125 458.773438 674.871094 457.488281 704.820312 481.664062 C 714.414062 489.417969 722.457031 501.355469 732.152344 512.761719 C 741.914062 524.230469 752.351562 537.019531 755.769531 547.59375 C 762.816406 569.382812 766.441406 602.75 765.707031 628.457031 C 765.226562 645.558594 761.109375 670.453125 754.527344 684.433594 C 749.339844 695.457031 734.15625 708.925781 720.964844 723.003906 C 709.800781 734.925781 696.863281 750.722656 683.6875 757.832031 C 677.863281 760.976562 669.332031 763.058594 662.5625 766.542969 C 636.050781 780.191406 599.601562 787.316406 560.660156 777.738281 C 545.675781 774.050781 534.550781 762.605469 517.164062 755.34375 "/><path style=" stroke:none;fill-rule:evenodd;fill:#1b1b1b;fill-opacity:1;" d="M 642.679688 566.253906 C 646.546875 571.089844 653.046875 573.296875 653.867188 581.1875 C 652.027344 581.832031 650.734375 583.023438 648.890625 583.675781 C 644.710938 584.539062 644.820312 581.117188 642.679688 579.9375 C 635.613281 580.734375 633.507812 586.519531 627.765625 588.644531 C 629.347656 591.628906 632.304688 593.230469 631.496094 598.605469 C 627.671875 597.675781 629.105469 602.011719 625.28125 601.085938 C 619.679688 600.882812 622.761719 591.996094 616.574219 592.382812 C 613.019531 596.511719 618.390625 601.859375 614.097656 604.820312 C 610.570312 604.609375 608.917969 602.539062 605.394531 602.335938 C 607.71875 600.121094 604.386719 599.171875 605.394531 594.871094 C 601.886719 593.839844 602.175781 596.625 599.183594 596.109375 C 600.234375 604.777344 600.519531 609.082031 592.964844 611.035156 C 593.824219 607.695312 590.398438 608.632812 589.238281 607.304688 C 588.445312 602.355469 592.523438 602.304688 591.730469 597.359375 C 590.847656 592.84375 582.667969 595.644531 578.054688 594.871094 C 577.726562 599.09375 579.015625 604.953125 576.8125 607.304688 C 573.515625 607.289062 569.714844 607.78125 568.113281 606.0625 C 567.148438 600.125 570.058594 598.058594 569.359375 592.382812 C 562.429688 588.84375 562.582031 599.585938 553.199219 597.359375 C 553.8125 590.5 556.070312 585.296875 556.929688 578.695312 C 565.867188 577.214844 568.375 582.171875 573.085938 584.914062 C 595.660156 589.558594 625.445312 583.902344 638.949219 566.253906 C 640.191406 566.253906 641.4375 566.253906 642.679688 566.253906 "/><path style=" stroke:none;fill-rule:evenodd;fill:#1b1b1b;fill-opacity:1;" d="M 463.722656 599.839844 C 454.105469 603.160156 449.417969 594.289062 441.351562 601.085938 C 443.839844 606.644531 446.886719 611.445312 441.351562 616.015625 C 435.746094 614.996094 432.664062 611.445312 432.65625 604.820312 C 428.128906 605.492188 426.925781 605.699219 421.472656 607.304688 C 420.632812 608.460938 422.046875 615.097656 418.988281 617.257812 C 416.914062 617.253906 414.84375 617.257812 412.773438 617.257812 C 410.996094 615.601562 410.996094 610.21875 412.773438 608.554688 C 410.246094 605.273438 402.695312 607.027344 399.097656 604.820312 C 397.003906 607.273438 397.746094 612.585938 396.617188 616.015625 C 393.3125 616 389.523438 616.484375 387.917969 614.773438 C 387.582031 610.289062 390.207031 608.777344 390.402344 604.820312 C 389.132812 601.941406 384.6875 602.246094 380.457031 602.335938 C 379.496094 606.851562 372.734375 610.472656 368.03125 607.304688 C 367.007812 597.574219 375.957031 597.828125 377.976562 591.132812 C 406.007812 596.546875 425.992188 600.789062 448.808594 584.914062 C 453.46875 581.679688 465.46875 592.601562 463.722656 599.839844 "/><path style=" stroke:none;fill-rule:evenodd;fill:#1b1b1b;fill-opacity:1;" d="M 632.734375 624.726562 C 629.242188 626.453125 625.589844 628.015625 621.550781 625.972656 C 620.402344 615.769531 633.246094 615.472656 632.734375 624.726562 "/><path style=" stroke:none;fill-rule:evenodd;fill:#1b1b1b;fill-opacity:1;" d="M 535.804688 635.921875 C 514.570312 643.761719 493.761719 644.78125 466.210938 639.652344 C 464.25 630.222656 473.039062 631.558594 474.90625 625.972656 C 485.183594 629.863281 497.941406 635.660156 513.429688 630.941406 C 519.398438 629.128906 520.917969 624.363281 525.863281 624.726562 C 530.339844 625.058594 537.355469 629.128906 535.804688 635.921875 "/><path style=" stroke:none;fill-rule:evenodd;fill:#1b1b1b;fill-opacity:1;" d="M 600.425781 629.703125 C 603.355469 629.671875 604.074219 631.84375 607.882812 630.941406 C 607.882812 633.015625 607.882812 635.097656 607.882812 637.164062 C 606.28125 638.882812 602.488281 638.390625 599.183594 638.402344 C 599.191406 635.101562 598.714844 631.304688 600.425781 629.703125 "/><path style=" stroke:none;fill-rule:evenodd;fill:#1b1b1b;fill-opacity:1;" d="M 699.839844 633.4375 C 699.230469 640.332031 692.8125 644.71875 688.664062 638.402344 C 689.769531 632.738281 694.992188 628.679688 699.839844 633.4375 "/><path style=" stroke:none;fill-rule:evenodd;fill:#1b1b1b;fill-opacity:1;" d="M 376.734375 634.675781 C 377.535156 639.214844 375.898438 641.304688 374.25 643.382812 C 368.941406 643.722656 368.839844 638.84375 365.546875 637.164062 C 367.757812 633.941406 372.328125 632.351562 376.734375 634.675781 "/><path style=" stroke:none;fill-rule:evenodd;fill:#1b1b1b;fill-opacity:1;" d="M 339.449219 634.675781 C 342.042969 635.40625 343.46875 637.292969 345.664062 638.402344 C 344.890625 642.195312 342.898438 644.769531 338.207031 644.628906 C 334.832031 640.8125 336.714844 638.082031 339.449219 634.675781 "/><path style=" stroke:none;fill-rule:evenodd;fill:#1b1b1b;fill-opacity:1;" d="M 643.929688 640.894531 C 643.871094 646.238281 639.34375 647.097656 633.980469 647.113281 C 634.003906 644.179688 631.835938 643.453125 632.734375 639.652344 C 636.910156 638.269531 642.21875 635.035156 643.929688 640.894531 "/><path style=" stroke:none;fill-rule:evenodd;fill:#1b1b1b;fill-opacity:1;" d="M 412.773438 640.894531 C 414.203125 642.367188 414.175781 645.300781 414.015625 648.359375 C 409.34375 653 401.636719 648.160156 405.320312 642.136719 C 407.9375 640.492188 408.992188 642.75 412.773438 640.894531 "/><path style=" stroke:none;fill-rule:evenodd;fill:#1b1b1b;fill-opacity:1;" d="M 345.664062 654.585938 C 345.117188 659.421875 343.3125 663.003906 336.960938 662.035156 C 331.347656 655.167969 341.363281 648.113281 345.664062 654.585938 "/><path style=" stroke:none;fill-rule:evenodd;fill:#1b1b1b;fill-opacity:1;" d="M 394.136719 658.308594 C 394.394531 660.441406 392.007812 661.539062 394.136719 662.035156 C 393.800781 666.1875 386.015625 666.984375 382.945312 664.535156 C 383.179688 658.546875 388.445312 655.222656 394.136719 658.308594 "/><path style=" stroke:none;fill-rule:evenodd;fill:#1b1b1b;fill-opacity:1;" d="M 689.898438 685.679688 C 696.378906 685.417969 697.738281 690.277344 702.332031 691.902344 C 701.675781 692.902344 701.03125 693.921875 701.085938 695.632812 C 697.625 697.882812 692.453125 693.253906 688.664062 691.902344 C 688.261719 689.019531 688.859375 687.121094 689.898438 685.679688 "/><path style=" stroke:none;fill-rule:evenodd;fill:#1b1b1b;fill-opacity:1;" d="M 361.820312 701.851562 C 361.851562 707.277344 357.855469 708.667969 356.847656 713.042969 C 354.359375 713.042969 351.875 713.042969 349.390625 713.042969 C 348.042969 704.328125 355.886719 699.242188 361.820312 701.851562 "/><path style=" stroke:none;fill-rule:evenodd;fill:#1b1b1b;fill-opacity:1;" d="M 683.6875 711.808594 C 679.34375 716.015625 673.039062 712.023438 670.011719 708.074219 C 670.894531 696.75 683.289062 704.945312 683.6875 711.808594 "/><path style=" stroke:none;fill-rule:evenodd;fill:#1b1b1b;fill-opacity:1;" d="M 373.003906 711.808594 C 379.8125 716.445312 367.921875 727.296875 361.820312 723.003906 C 362.9375 714.011719 368.695312 716.078125 373.003906 711.808594 "/><path style=" stroke:none;fill-rule:evenodd;fill:#000000;fill-opacity:1;" d="M 307.203125 464.578125 C 304.695312 454.195312 294.214844 444.695312 291.710938 432.585938 C 285.558594 402.820312 296.902344 374.136719 309.140625 354.035156 C 315.941406 348.890625 322.660156 343.65625 330.453125 339.484375 C 362.988281 334.152344 403.472656 337.808594 438.945312 334.644531 C 458.695312 332.878906 477.007812 327.359375 497.0625 322.042969 C 504.285156 320.121094 512.023438 321.050781 518.367188 319.125 C 537.554688 313.300781 558.328125 297.476562 571.644531 280.339844 C 588.882812 258.15625 608.191406 227.375 604.582031 185.300781 C 604.027344 178.820312 601.324219 171.929688 600.707031 164.953125 C 599.871094 155.507812 601.253906 145.773438 599.738281 138.777344 C 596.976562 126.074219 588.359375 116.503906 587.144531 103.867188 C 569.902344 85.996094 559.367188 65.242188 536.777344 54.417969 C 520.722656 46.71875 497.671875 43.492188 475.75 41.804688 C 458.980469 40.511719 446.207031 41.308594 428.289062 40.835938 C 377.996094 39.488281 325.703125 39.953125 276.210938 39.863281 C 252.738281 39.832031 223.007812 39.929688 197.753906 41.804688 C 150.777344 45.296875 105.605469 49.207031 79.574219 71.859375 C 75.679688 80.082031 69.738281 85.730469 63.109375 93.199219 C 46.925781 121.492188 41 158.347656 40.824219 195.980469 C 48.101562 243.234375 62.933594 277.140625 89.257812 304.585938 C 110.039062 326.238281 143.511719 337.84375 181.28125 339.484375 C 193.890625 340.050781 209.089844 336.816406 220.027344 341.4375 C 230.140625 345.699219 232.925781 361.390625 238.429688 375.363281 C 253.652344 414.011719 277.695312 438.453125 306.238281 463.609375 C 307.058594 463.425781 307.148438 463.976562 307.203125 464.578125 Z M 125.097656 341.4375 C 76.589844 323.21875 35.226562 268.683594 29.199219 214.40625 C 27.199219 196.339844 28.535156 173.757812 30.175781 160.101562 C 33.179688 134.976562 44.230469 104.230469 56.324219 87.378906 C 65.054688 75.214844 74.199219 62.175781 87.324219 55.386719 C 117.164062 39.929688 156.675781 36.800781 197.753906 34.054688 C 267.445312 29.386719 341.300781 32.078125 399.230469 33.074219 C 415.324219 33.359375 432.351562 29.3125 442.816406 35.023438 C 473.925781 33.066406 508.824219 34.09375 536.777344 44.722656 C 554.777344 51.558594 566.9375 65.058594 578.425781 79.617188 C 585.070312 88.050781 594.363281 95.964844 597.796875 102.898438 C 603.550781 114.453125 601.324219 127.484375 610.394531 137.804688 C 612.488281 155.429688 610.367188 165.855469 612.335938 176.589844 C 612.824219 179.273438 614.714844 181.484375 615.234375 184.351562 C 618.449219 201.949219 612.390625 224.734375 606.515625 240.585938 C 602.101562 252.492188 599.039062 258.746094 592.960938 268.714844 C 576.941406 294.925781 556.257812 316.96875 525.152344 327.855469 C 512.847656 332.15625 498.308594 334.359375 484.464844 337.5625 C 448.085938 345.933594 406.316406 346.570312 367.261719 347.246094 C 354.140625 347.476562 339.960938 346.402344 328.515625 352.085938 C 303.023438 364.796875 293.023438 419.820312 308.179688 449.058594 C 315.59375 463.375 327.816406 471.894531 330.453125 485.902344 C 320.503906 489.9375 311.679688 480.144531 304.304688 475.242188 C 262.417969 447.390625 230.054688 408.265625 212.28125 357.917969 C 182.339844 346.828125 151.335938 351.277344 125.097656 341.4375 "/><path style=" stroke:none;fill-rule:evenodd;fill:#000000;fill-opacity:1;" d="M 190.96875 283.246094 C 190.96875 284.542969 190.96875 285.828125 190.96875 287.132812 C 193.992188 288.894531 197.011719 289.460938 199.6875 287.132812 C 198.816406 285.414062 197.347656 284.300781 196.777344 282.28125 C 194.390625 282.15625 192.113281 282.132812 190.96875 283.246094 "/><path style=" stroke:none;fill-rule:evenodd;fill:#000000;fill-opacity:1;" d="M 202.585938 261.917969 C 203.691406 267.277344 206.023438 271.40625 211.308594 272.582031 C 212.796875 266.371094 210.039062 261.730469 202.585938 261.917969 "/><path style=" stroke:none;fill-rule:evenodd;fill:#000000;fill-opacity:1;" d="M 543.558594 100.957031 C 540.976562 100.957031 538.386719 100.957031 535.808594 100.957031 C 535.519531 105.429688 537.828125 107.34375 540.65625 108.71875 C 544.167969 107.996094 544.449219 103.472656 543.558594 100.957031 "/><path style=" stroke:none;fill-rule:evenodd;fill:#000000;fill-opacity:1;" d="M 548.402344 102.898438 C 549.460938 97.722656 546.601562 88.703125 538.707031 89.316406 C 539.324219 96.460938 542.480469 101.066406 548.402344 102.898438 "/><path style=" stroke:none;fill-rule:evenodd;fill:#fffef8;fill-opacity:1;" d="M 543.558594 100.957031 C 540.976562 100.957031 538.386719 100.957031 535.808594 100.957031 C 535.519531 105.429688 537.828125 107.34375 540.65625 108.71875 C 544.167969 107.996094 544.449219 103.472656 543.558594 100.957031 Z M 548.402344 102.898438 C 549.460938 97.722656 546.601562 88.703125 538.707031 89.316406 C 539.324219 96.460938 542.480469 101.066406 548.402344 102.898438 Z M 202.585938 261.917969 C 203.691406 267.277344 206.023438 271.40625 211.308594 272.582031 C 212.796875 266.371094 210.039062 261.730469 202.585938 261.917969 Z M 190.96875 283.246094 C 190.96875 284.542969 190.96875 285.828125 190.96875 287.132812 C 193.992188 288.894531 197.011719 289.460938 199.6875 287.132812 C 198.816406 285.414062 197.347656 284.300781 196.777344 282.28125 C 194.390625 282.15625 192.113281 282.132812 190.96875 283.246094 Z M 306.238281 463.609375 C 277.695312 438.453125 253.652344 414.011719 238.429688 375.363281 C 232.925781 361.390625 230.140625 345.699219 220.027344 341.4375 C 209.089844 336.816406 193.890625 340.050781 181.28125 339.484375 C 143.511719 337.84375 110.039062 326.238281 89.257812 304.585938 C 62.933594 277.140625 48.101562 243.234375 40.824219 195.980469 C 41 158.347656 46.925781 121.492188 63.109375 93.199219 C 69.738281 85.730469 75.679688 80.082031 79.574219 71.859375 C 105.605469 49.207031 150.777344 45.296875 197.753906 41.804688 C 223.007812 39.929688 252.738281 39.832031 276.210938 39.863281 C 325.703125 39.953125 377.996094 39.488281 428.289062 40.835938 C 446.207031 41.308594 458.980469 40.511719 475.75 41.804688 C 497.671875 43.492188 520.722656 46.71875 536.777344 54.417969 C 559.367188 65.242188 569.902344 85.996094 587.144531 103.867188 C 588.359375 116.503906 596.976562 126.074219 599.738281 138.777344 C 601.253906 145.773438 599.871094 155.507812 600.707031 164.953125 C 601.324219 171.929688 604.027344 178.820312 604.582031 185.300781 C 608.191406 227.375 588.882812 258.15625 571.644531 280.339844 C 558.328125 297.476562 537.554688 313.300781 518.367188 319.125 C 512.023438 321.050781 504.285156 320.121094 497.0625 322.042969 C 477.007812 327.359375 458.695312 332.878906 438.945312 334.644531 C 403.472656 337.808594 362.988281 334.152344 330.453125 339.484375 C 322.660156 343.65625 315.941406 348.890625 309.140625 354.035156 C 296.902344 374.136719 285.558594 402.820312 291.710938 432.585938 C 294.214844 444.695312 304.695312 454.195312 307.203125 464.578125 C 307.148438 463.976562 307.058594 463.425781 306.238281 463.609375 "/><g clip-rule="nonzero" clip-path="url(#036a1af02f)"><g clip-rule="nonzero" clip-path="url(#8e263e7a7b)"><g clip-rule="nonzero" clip-path="url(#615e941a21)"><g clip-rule="nonzero" clip-path="url(#b83be4a54f)"><g clip-rule="nonzero" clip-path="url(#4714bed94d)"><path style=" stroke:none;fill-rule:nonzero;fill:#000000;fill-opacity:1;" d="M 105.738281 230.0625 C 107.1875 233.878906 111.46875 235.8125 115.300781 234.371094 L 145.488281 223.019531 C 148.355469 221.945312 149.796875 218.757812 148.710938 215.894531 L 148.457031 215.246094 C 147.375 212.386719 144.171875 210.945312 141.308594 212.023438 L 127.078125 217.371094 C 126.246094 217.683594 122.398438 219.25 119 220.769531 L 133.589844 185.671875 C 134.296875 184.0625 134.335938 182.242188 133.707031 180.605469 C 132.386719 177.125 128.484375 175.367188 125.003906 176.675781 L 97.316406 187.085938 C 94.453125 188.164062 93.011719 191.351562 94.09375 194.210938 C 95.1875 197.078125 98.40625 198.523438 101.277344 197.421875 L 112.777344 193.03125 C 115.148438 192.105469 119.046875 190.574219 120.46875 189.933594 C 119.746094 191.53125 109.601562 216.054688 105.882812 224.464844 C 105.09375 226.238281 105.046875 228.246094 105.738281 230.0625 "/></g></g></g></g></g><g clip-rule="nonzero" clip-path="url(#5c490e1ef7)"><g clip-rule="nonzero" clip-path="url(#2c7d3e94db)"><g clip-rule="nonzero" clip-path="url(#62290faa33)"><g clip-rule="nonzero" clip-path="url(#8e62524f38)"><path style=" stroke:none;fill-rule:nonzero;fill:#000000;fill-opacity:1;" d="M 175.695312 201.511719 C 176.023438 206.496094 180.347656 210.277344 185.347656 209.957031 L 224.761719 207.429688 C 228.496094 207.1875 231.328125 203.972656 231.074219 200.242188 L 231.023438 199.394531 C 230.773438 195.664062 227.535156 192.835938 223.800781 193.078125 L 205.226562 194.269531 C 204.136719 194.339844 199.074219 194.800781 194.546875 195.363281 L 224.199219 159.515625 C 225.597656 157.886719 226.296875 155.777344 226.152344 153.632812 C 225.851562 149.097656 221.914062 145.652344 217.363281 145.945312 L 181.222656 148.265625 C 177.484375 148.503906 174.65625 151.71875 174.90625 155.449219 C 175.152344 159.191406 178.402344 162.019531 182.15625 161.757812 L 197.195312 160.714844 C 200.300781 160.480469 205.414062 160.070312 207.304688 159.832031 C 205.890625 161.441406 185.230469 186.503906 177.863281 195.019531 C 176.3125 196.816406 175.535156 199.144531 175.695312 201.511719 "/></g></g></g></g><g clip-rule="nonzero" clip-path="url(#a2dfce11fa)"><g clip-rule="nonzero" clip-path="url(#5074949944)"><g clip-rule="nonzero" clip-path="url(#b84dbee6b6)"><g clip-rule="nonzero" clip-path="url(#ac29028c88)"><path style=" stroke:none;fill-rule:nonzero;fill:#000000;fill-opacity:1;" d="M 267.820312 220.605469 L 314.488281 227.410156 C 318.914062 228.054688 323.023438 225.003906 323.660156 220.589844 L 323.804688 219.585938 C 324.445312 215.171875 321.371094 211.070312 316.945312 210.425781 L 294.949219 207.21875 C 293.664062 207.035156 287.628906 206.316406 282.199219 205.855469 L 325.773438 171.355469 C 327.808594 169.796875 329.15625 167.511719 329.519531 164.972656 C 330.296875 159.597656 326.554688 154.605469 321.167969 153.820312 L 278.367188 147.578125 C 273.941406 146.933594 269.832031 149.984375 269.195312 154.40625 C 268.554688 158.832031 271.652344 162.941406 276.097656 163.566406 L 293.925781 166.066406 C 297.613281 166.558594 303.6875 167.347656 305.957031 167.539062 C 303.910156 169.0625 273.523438 193.203125 262.796875 201.320312 C 260.535156 203.027344 259.050781 205.554688 258.644531 208.359375 C 257.792969 214.257812 261.898438 219.746094 267.820312 220.605469 "/></g></g></g></g><g clip-rule="nonzero" clip-path="url(#eddbc43bb4)"><g clip-rule="nonzero" clip-path="url(#d2903a9499)"><g clip-rule="nonzero" clip-path="url(#2b0526ce63)"><g clip-rule="nonzero" clip-path="url(#ac170e6085)"><path style=" stroke:none;fill-rule:nonzero;fill:#000000;fill-opacity:1;" d="M 433.421875 232.261719 L 433.347656 231.144531 C 433.019531 226.238281 428.761719 222.515625 423.839844 222.832031 L 399.394531 224.402344 C 397.960938 224.492188 391.296875 225.101562 385.335938 225.839844 L 424.375 178.65625 C 426.207031 176.507812 427.128906 173.734375 426.941406 170.914062 C 426.539062 164.9375 421.359375 160.40625 415.367188 160.789062 L 367.792969 163.84375 C 362.875 164.160156 359.148438 168.398438 359.476562 173.304688 C 359.808594 178.222656 364.089844 181.957031 369.023438 181.609375 L 388.820312 180.234375 C 392.910156 179.921875 399.636719 179.382812 402.132812 179.074219 C 400.269531 181.1875 373.070312 214.183594 363.375 225.394531 C 361.332031 227.75 360.308594 230.820312 360.515625 233.9375 C 360.957031 240.496094 366.644531 245.472656 373.226562 245.050781 L 425.101562 241.71875 C 430.023438 241.40625 433.75 237.167969 433.421875 232.261719 "/></g></g></g></g><g clip-rule="nonzero" clip-path="url(#4e7196b4a9)"><g clip-rule="nonzero" clip-path="url(#938cefc2e5)"><g clip-rule="nonzero" clip-path="url(#d660f58721)"><g clip-rule="nonzero" clip-path="url(#63d7e2e9a2)"><path style=" stroke:none;fill-rule:nonzero;fill:#000000;fill-opacity:1;" d="M 466.886719 223.085938 C 469.066406 230.367188 476.75 234.523438 484.050781 232.367188 L 541.597656 215.375 C 547.0625 213.765625 550.167969 208.042969 548.539062 202.59375 L 548.167969 201.355469 C 546.539062 195.910156 540.792969 192.800781 535.332031 194.414062 L 508.210938 202.417969 C 506.621094 202.894531 499.269531 205.273438 492.753906 207.632812 L 524.582031 144.492188 C 526.101562 141.609375 526.425781 138.238281 525.488281 135.113281 C 523.503906 128.476562 516.511719 124.695312 509.859375 126.660156 L 457.082031 142.238281 C 451.621094 143.851562 448.515625 149.570312 450.144531 155.019531 C 451.777344 160.484375 457.5625 163.589844 463.035156 161.949219 L 484.964844 155.339844 C 489.488281 153.949219 496.921875 151.628906 499.652344 150.636719 C 498.097656 153.496094 475.949219 197.621094 467.910156 212.722656 C 466.214844 215.910156 465.847656 219.621094 466.886719 223.085938 "/></g></g></g></g></g></svg>